<?xml version="1.0" standalone="no"?>
<!DOCTYPE svg PUBLIC "-//W3C//DTD SVG 20010904//EN"
 "http://www.w3.org/TR/2001/REC-SVG-20010904/DTD/svg10.dtd">
<svg version="1.0" xmlns="http://www.w3.org/2000/svg"
 width="144.000000pt" height="175.000000pt" viewBox="0 0 144.000000 175.000000"
 preserveAspectRatio="xMidYMid meet">

<g transform="translate(0.000000,175.000000) scale(0.100000,-0.100000)"
fill="#000000" stroke="none">
<path d="M580 1706 c-154 -33 -255 -89 -371 -205 -73 -73 -94 -101 -132 -181
-84 -174 -98 -351 -43 -526 47 -147 76 -184 393 -504 l292 -295 276 275 c286
285 353 366 395 477 75 198 62 404 -38 598 -54 106 -191 239 -302 293 -47 23
-112 49 -145 58 -84 22 -245 27 -325 10z m224 -420 c209 -63 278 -323 128
-480 -57 -59 -122 -86 -212 -86 -90 0 -155 27 -212 86 -123 128 -101 343 44
439 81 54 165 67 252 41z"/>
</g>
</svg>
